<svg width="360" height="60" viewBox="0 0 360 60" fill="none" xmlns="http://www.w3.org/2000/svg">
<g clip-path="url(#clip0_586_1736)">
<rect width="360" height="60" fill="white"/>
<circle cx="30" cy="30" r="30" fill="#B5A2A2"/>
<path d="M20.829 30.2886L27.8189 37.6903C29.0027 38.944 30.9973 38.944 32.1811 37.6903L39.171 30.2886C41.6097 27.7061 41.6097 23.5192 39.171 20.9368C36.7323 18.3544 32.7784 18.3544 30.3397 20.9368C30.1553 21.132 29.8447 21.132 29.6603 20.9368C27.2216 18.3544 23.2677 18.3544 20.829 20.9368C18.3903 23.5192 18.3903 27.7061 20.829 30.2886Z" fill="white" stroke="white" stroke-width="1.5"/>
<circle cx="90" cy="30" r="30" fill="#FF7B7B"/>
<path d="M92.6266 16.6728C92.6252 16.5966 92.5418 16.5465 92.4759 16.5849C87.0972 19.7225 87.3065 27.8359 87.3664 29.013C87.37 29.084 87.3031 29.1307 87.238 29.1022C86.7082 28.8704 84.8189 27.8252 84.7518 24.6883C84.7502 24.6119 84.6679 24.5618 84.6018 24.6002C81.5516 26.3736 79.5 29.692 79.5 33.375C79.5 38.9669 84.201 43.5001 90 43.5001C95.799 43.5001 100.5 38.9669 100.5 33.375C100.5 25.217 92.7556 23.4895 92.6266 16.6728Z" fill="white" stroke="white" stroke-width="1.5"/>
<circle cx="150" cy="30" r="30" fill="#8FDC73"/>
<path d="M148.972 20.7085C149.438 19.9335 150.562 19.9335 151.028 20.7085L153.359 24.5809C153.526 24.8593 153.799 25.0578 154.116 25.1312L158.519 26.1509C159.4 26.355 159.747 27.4236 159.154 28.1066L156.192 31.5196C155.979 31.765 155.874 32.0863 155.902 32.41L156.293 36.9127C156.371 37.8138 155.462 38.4742 154.63 38.1214L150.468 36.3583C150.169 36.2316 149.831 36.2316 149.532 36.3583L145.37 38.1214C144.538 38.4742 143.629 37.8138 143.707 36.9127L144.098 32.41C144.126 32.0863 144.021 31.765 143.808 31.5196L140.846 28.1066C140.253 27.4236 140.6 26.355 141.481 26.1509L145.884 25.1312C146.201 25.0578 146.474 24.8593 146.641 24.5809L148.972 20.7085Z" fill="white" stroke="white" stroke-width="1.5"/>
<circle cx="210" cy="30" r="30" fill="#7A5B3E"/>
<path d="M199 23.25C199 22.0074 200.007 21 201.25 21H217.75C218.993 21 220 22.0074 220 23.25C220 24.4926 218.993 25.5 217.75 25.5H201.25C200.007 25.5 199 24.4926 199 23.25Z" fill="white"/>
<path fill-rule="evenodd" clip-rule="evenodd" d="M201.771 42.249L200.559 27.697C200.784 27.7318 201.015 27.7499 201.25 27.7499H217.75C217.986 27.7499 218.217 27.7318 218.442 27.697L217.23 42.249C217.1 43.8039 215.8 44.9999 214.24 44.9999H204.761C203.201 44.9999 201.901 43.8039 201.771 42.249ZM211.75 35.9998C211.75 34.7571 210.743 33.7498 209.5 33.7498C208.258 33.7498 207.25 34.7571 207.25 35.9998C207.25 37.2424 208.258 38.2498 209.5 38.2498C210.743 38.2498 211.75 37.2424 211.75 35.9998ZM209.5 32.2498C211.571 32.2498 213.25 33.9287 213.25 35.9998C213.25 38.0708 211.571 39.7498 209.5 39.7498C207.429 39.7498 205.75 38.0708 205.75 35.9998C205.75 33.9287 207.429 32.2498 209.5 32.2498Z" fill="white"/>
<path fill-rule="evenodd" clip-rule="evenodd" d="M204 15C202.895 15 202 15.8954 202 17V18.75H217V17C217 15.8954 216.105 15 215 15H204Z" fill="white"/>
<circle cx="270" cy="30" r="30" fill="#D9D9D9"/>
<circle cx="270" cy="30" r="30" fill="#9467B8"/>
<path d="M277.5 24H262.5C261.672 24 261 24.6716 261 25.5V27.5C261 28.3284 261.672 29 262.5 29H265.5H274.5H277.5C278.328 29 279 28.3284 279 27.5V25.5C279 24.6716 278.328 24 277.5 24Z" fill="white"/>
<path d="M270 22.5C270 21.1193 271.119 20 272.5 20H273C274.105 20 275 20.8954 275 22V22C275 23.1046 274.105 24 273 24H270V22.5Z" stroke="white" stroke-width="1.5"/>
<path d="M270 22.5C270 21.1193 268.881 20 267.5 20H267C265.895 20 265 20.8954 265 22V22C265 23.1046 265.895 24 267 24H270V22.5Z" stroke="white" stroke-width="1.5"/>
<path fill-rule="evenodd" clip-rule="evenodd" d="M262 30.5V36C262 38.2091 263.791 40 266 40H269.2L269.2 30.5H262ZM270.7 30.5L270.7 40H274C276.209 40 278 38.2091 278 36V30.5H270.7Z" fill="white"/>
<path d="M277.5 24H262.5C261.672 24 261 24.6716 261 25.5V27.5C261 28.3284 261.672 29 262.5 29H265.5H274.5H277.5C278.328 29 279 28.3284 279 27.5V25.5C279 24.6716 278.328 24 277.5 24Z" fill="white"/>
<path d="M270 22.5C270 21.1193 271.119 20 272.5 20H273C274.105 20 275 20.8954 275 22V22C275 23.1046 274.105 24 273 24H270V22.5Z" stroke="white" stroke-width="1.5"/>
<path d="M270 22.5C270 21.1193 268.881 20 267.5 20H267C265.895 20 265 20.8954 265 22V22C265 23.1046 265.895 24 267 24H270V22.5Z" stroke="white" stroke-width="1.5"/>
<path fill-rule="evenodd" clip-rule="evenodd" d="M262 30.5V36C262 38.2091 263.791 40 266 40H269.2L269.2 30.5H262ZM270.7 30.5L270.7 40H274C276.209 40 278 38.2091 278 36V30.5H270.7Z" fill="white"/>
<circle cx="330" cy="30" r="30" fill="#68C9D7"/>
<path fill-rule="evenodd" clip-rule="evenodd" d="M329.25 21.035L329.163 21.0025C326.49 19.9993 323.51 19.9993 320.837 21.0025C319.902 21.3533 319.25 22.2221 319.25 23.2291V37.0798C319.25 38.5947 320.832 39.4933 322.168 38.9919C323.985 38.31 326.015 38.31 327.832 38.9919L329.25 39.5241V21.035ZM330.75 39.5241L332.168 38.9919C333.985 38.31 336.015 38.31 337.832 38.9919C339.168 39.4933 340.75 38.5947 340.75 37.0798V23.2291C340.75 22.2221 340.098 21.3533 339.163 21.0025C336.49 19.9993 333.51 19.9993 330.837 21.0025L330.75 21.035V39.5241Z" fill="white"/>
</g>
<defs>
<clipPath id="clip0_586_1736">
<rect width="360" height="60" fill="white"/>
</clipPath>
</defs>
</svg>
